# xmcd
#
# Track frame offsets:
#	150
#	17162
#	34860
#	48518
#	66976
#	87158
#	103226
#	121339
#	136929
#
# Disc length: 1970 seconds
#
# Revision: 1
# Processed by: cddbd v1.5.2PL0 Copyright (c) Steve Scherf et al.
# Submitted via: EasyCDDAExtractor 11.0.0.1
#
DISCID=7a07b009
DTITLE=ΑΝΤΩΝΙΑΔΗΣ ΧΡΗΣΤΟΣ - Η ΠΡΩΤΗ ΑΓΑΠΗ CD1
DYEAR=2001
DGENRE=ΛΑΪΚΑ
TTITLE0=ΧΩΡΙΣΑ ΚΑΙ ΔΕ ΧΩΡΙΣΑ
TTITLE1=ΔΕ ΜΟΙΑΖΕΙΣ ΜΕ ΤΙΣ ΑΛΛΕΣ
TTITLE2=ΟΤΙ ΠΕΡΑΣΕ ΠΕΡΑΣΕ
TTITLE3=Η ΠΡΩΤΗ ΑΓΑΠΗ
TTITLE4=ΜΕΙΝΕ
TTITLE5=ΕΤΣΙ ΤΟ ΒΛΕΠΕΙΣ
TTITLE6=ΜΟΝΟ ΕΣΥ
TTITLE7=ΠΑΡΑΔΕΙΣΟΣ ΚΑΙ ΚΟΛΑΣΗ
TTITLE8=ΠΩΣ
EXTD=
EXTT0=
EXTT1=
EXTT2=
EXTT3=
EXTT4=
EXTT5=
EXTT6=
EXTT7=
EXTT8=
PLAYORDER=
